<svg class="icon" width="256" height="256" viewBox="0 0 1024 1024" 
    xmlns="http://www.w3.org/2000/svg">
    <path class="st0" d="M368.4 662.9c2.4-1 4.9-1.9 7.4-2.8 2.4-.9 4.8-1.7 7.3-2.6 2.5-.8 5-1.7 7.5-2.4 2.4-.8 4.9-1.6 7.3-2.3 3-.9 6.1-1.7 9.1-2.5 3.6-1 7.2-1.9 10.8-2.8 3.2-.8 6.3-1.5 9.5-2.2 2.4-.5 4.8-1 7.2-1.4 5.3-1 10.7-2 16-2.8 3.3-.5 6.5-1 9.8-1.4 2.1-.3 4.2-.6 6.3-.8 5.5-.6 10.9-1.1 16.4-1.6h61.4c5.5.4 10.9 1 16.4 1.6 2.1.2 4.2.5 6.4.8 3.3.4 6.5.9 9.7 1.4 2.4.4 4.9.8 7.3 1.2 2.9.5 5.8 1 8.7 1.6 2.5.5 4.9.9 7.3 1.5 3.1.7 6.1 1.4 9.1 2.1 3.9.9 189.6 155.3 191.1 157.1l-.2-444.9.1-.1C810.4 170.8 635 56.4 513.6 64.6l-.1.3c-85.6-.6-167.2 39.5-221.1 104.3-31.4 37.8-53.4 84-61.3 135.5-.3 2.1-.6 4.1-.9 6.2-.2 1.4-.4 2.8-.5 4.2-1.7 14.7-2.2 29.6-1.6 44.4 75.6 45.6 156.8 9.5 238.7-125.3 58.8 104.1 256.9 172.4 333 125.8-4.8 153.9-131 277.2-286.1 277.2-155.2 0-281.5-123.5-286.1-277.6h-.1l-.2 444.9c1-1.3 104-127.1 141.1-141.6zM233 758.1" fill="#333"/>
    <path class="st1" d="M514.8 958.8l328.5-2.7s-16.5-263.5-241.6-304.5c-61.3-5.1-88.3-3.1-88.3-3.1v.4c.1 192 1.4 309.9 1.4 309.9zm0 0" fill="#fff"/>
    <path class="st2" d="M510.7 958.8L183.5 956s16.3-263.7 240.7-304.8c61.1-5.1 87.8-3.1 87.8-3.1v.4c.1 192.4-1.3 310.3-1.3 310.3zm0 0" fill="#e1e6f7"/>
    <path class="st3" d="M389 536.9h229.8v178.3s-56.7 89.4-114.2 89.4c-57.4 0-115.6-89.4-115.6-89.4V536.9zm0 0" fill="#fce9ea"/>
    <path class="st4" fill="#ead6d9" d="M389 694.9V516.6h229.9v97.3"/>
    <path class="st5" d="M391.4 593.7c20.5 34.6 5 85.3 24.6 114.7 19.7 29.4 58.8 50.5 92.1 81.4-43.8 20.4-116.6 6.8-148.8-47.4-32.2-54.2-11.7-128.4 32.1-148.7zm0 0" fill="#c74a4a"/>
    <path class="st6" d="M478.3 753.1h64.9c14.9 0 27.1 12.1 27.1 27.1l-8.1 29.7c0 14.9-19.1 27.1-29.2 27.1h-44.3c-10.1 0-29.2-12.1-29.2-27.1l-8.1-29.7c-.2-14.9 12-27.1 26.9-27.1zm0 0" fill="#e25656"/>
    <path class="st6" d="M505.7 804.6c-19.7 3.7-32.1 30-38.3 54.1-7.9 30.8-12.3 67.2-15.7 98.6 39.9 0 50.8 0 92 .5 14.4-34.2 17.8-77.1-.6-118-9.1-20.5-21-38.3-37.4-35.2zm116.4-210.9c-20.5 34.5-5 85.2-24.7 114.6-19.7 29.2-58.9 50.4-92.2 81.3 43.9 20.3 130.2-6.6 162.5-60.6 32.2-54.2-1.8-115-45.6-135.3zm0 0" fill="#e25656"/>
    <path class="st5" d="M494.3 804.9c-16.1 3.8-26.3 29.9-31.3 54.2-6.3 30.7-9.9 66.7-12.8 98.1 23.5.1 28 .1 45.6-.2 27.2-37.3 47.3-76.8 44.6-119.8-1.3-22-32.8-35.4-46.1-32.3zm0 0" fill="#c74a4a"/>
    <path class="st4" d="M230.1 310.9c.3-2.1.6-4.1.9-6.2-.3 2.1-.7 4.2-.9 6.2zm283.3-246l.1-.3c-89.1 0-168.8 40.7-221.3 104.6 54-64.8 135.6-104.9 221.2-104.3zm.1 572.4c155.1 0 281.3-123.3 286.1-277.2-76.1 46.6-274.2-21.7-333-125.8C384.8 369 303.5 405.1 227.9 359.5c-.6-14.8-.1-29.6 1.6-44.4-1.5 11.9-2.3 23.8-2.3 35.8 0 2.9.1 5.8.2 8.7 4.7 154.1 130.9 277.7 286.1 277.7zm0 0" fill="#ead6d9"/>
    <path class="st3" d="M513.6 289.1v348.1c155.1 0 281.3-123.3 286.1-277.2-61.6 37.7-203.2.1-286.1-70.9z" fill="#fce9ea"/>
</svg>