<svg version="1.1" id="图形" 
    xmlns="http://www.w3.org/2000/svg" 
    xmlns:xlink="http://www.w3.org/1999/xlink" x="0px" y="0px" viewBox="15.167 -16.333 1000.636 1000.678" enable-background="new 15.167 -16.333 1000.636 1000.678" xml:space="preserve">
    <g>
        <path fill="#272636" d="M373.129,692.517c0,10.562,4.347,21.057,11.814,28.523c7.467,7.467,17.963,11.815,28.52,11.815
      c10.562,0,21.052-4.348,28.523-11.815c7.467-7.467,11.81-17.962,11.81-28.523c0-10.557-4.343-21.053-11.81-28.52
      c-7.472-7.467-17.962-11.814-28.523-11.814c-10.557,0-21.053,4.347-28.52,11.814C377.477,671.464,373.129,681.96,373.129,692.517
      L373.129,692.517z M373.129,692.517"/>
        <path fill="#272636" d="M570.321,692.517c0,10.562,4.347,21.057,11.814,28.523c7.467,7.467,17.963,11.815,28.52,11.815
      c10.562,0,21.057-4.348,28.523-11.815c7.467-7.467,11.815-17.962,11.815-28.523c0-10.557-4.348-21.053-11.815-28.52
      c-7.467-7.467-17.962-11.814-28.523-11.814c-10.557,0-21.053,4.347-28.52,11.814C574.668,671.464,570.321,681.96,570.321,692.517
      L570.321,692.517z M570.321,692.517"/>
        <path fill="#272636" d="M916.627,231.11L512.149,48.061L107.676,231.11l404.473,183.053L869.703,251.61
      c-1.715,78.539-12.048,165.777-18.091,173.763h25.433h25.433c-6.213-7.986-16.98-99.972-18.219-180.353L916.627,231.11
      L916.627,231.11z M916.627,231.11"/>
        <path fill="#272636" d="M512.149,453.244L262.638,336.296c-59.142,61.972-95.576,145.792-95.576,238.01
      c0,190.282,154.805,345.092,345.087,345.092s345.092-154.81,345.092-345.092c0-93.61-37.591-178.519-98.319-240.748
      L512.149,453.244L512.149,453.244z M803.408,572.349c0.01,0.658,0.052,1.301,0.052,1.958c0,160.63-130.681,291.311-291.311,291.311
      c-157.263,0-285.74-125.287-291.054-281.278c1.1,1.634,2.2,3.262,3.405,4.838c51.8,67.872,178.472,58.267,282.93-21.457
      c14.738-11.248,28.195-23.31,40.381-35.886c-1.733,56.367-11.491,92.268-46.743,120.349
      c47.786-21.219,76.043-63.972,92.748-106.449c69.681,63.458,158.454,79.696,202.106,35.462
      C798.66,578.421,801.15,575.459,803.408,572.349L803.408,572.349z M803.408,572.349"/>
    </g>
</svg>
